<svg width="236" height="25" viewBox="0 0 236 25" fill="none" xmlns="http://www.w3.org/2000/svg">
<path d="M11.3516 16.4922L0.125 11.875V9.50781L11.3516 4.89062V7.46875L2.67969 10.5859V10.7969L11.3516 13.9141V16.4922ZM224.562 16.4922V13.9141L232.766 10.7969V10.5859L221.738 6.23828L215.047 21.2266H212.562L221.984 0.132812H224.469L222.688 4.11719L235.789 9.50781V11.875L224.562 16.4922Z" fill="#222222"/>
<path d="M14 19V16.9609H16.7656V8.61719H14.4688V6.57812H18.7812L19.2031 9.76562H19.4844C19.625 7.48438 20.7656 6.34375 22.9062 6.34375C24.1875 6.34375 25.1172 6.71094 25.6953 7.44531C26.2734 8.17969 26.5625 9.36719 26.5625 11.0078H24.1016C24.1016 10.1016 23.9648 9.44922 23.6914 9.05078C23.4258 8.65234 22.9922 8.45312 22.3906 8.45312C21.3359 8.45312 20.5469 8.90625 20.0234 9.8125C19.5078 10.7109 19.25 11.9922 19.25 13.6562V16.9609H22.2969V19H14ZM32.5625 19.2344C31.1953 19.2344 30.1328 18.9258 29.375 18.3086C28.625 17.6836 28.25 16.7969 28.25 15.6484C28.25 14.3359 28.7266 13.3281 29.6797 12.625C30.6406 11.9219 32 11.5703 33.7578 11.5703C34.6953 11.5703 35.5156 11.668 36.2188 11.8633V11.1953C36.2188 10.3672 35.9258 9.76172 35.3398 9.37891C34.7617 8.98828 33.8984 8.77734 32.75 8.74609L29.7734 8.66406L30.0078 6.46094L32.5156 6.49609C34.5703 6.52734 36.0938 6.97266 37.0859 7.83203C38.0859 8.68359 38.5859 9.92969 38.5859 11.5703V16.75L40.6953 17.0078V19L36.7109 19.1172L36.5938 16.375H36.3477C36.2617 17.3281 35.8828 18.043 35.2109 18.5195C34.5391 18.9961 33.6562 19.2344 32.5625 19.2344ZM32.9609 17.2422C33.6875 17.2422 34.2891 17.1094 34.7656 16.8438C35.25 16.5781 35.6133 16.2383 35.8555 15.8242C36.0977 15.4102 36.2188 14.9844 36.2188 14.5469V13.7969C35.7812 13.6797 35.3438 13.6133 34.9062 13.5977C34.4766 13.5742 34.0391 13.5625 33.5938 13.5625C31.5938 13.5625 30.5938 14.1797 30.5938 15.4141C30.5938 16.6328 31.3828 17.2422 32.9609 17.2422ZM45.8984 19V11.4297H41.9844V9.39062H45.8984V7.63281C45.8984 3.33594 47.8594 1.1875 51.7812 1.1875C52.6719 1.1875 53.5312 1.26563 54.3594 1.42188L54.1016 3.57812C53.6094 3.51563 53.1758 3.47266 52.8008 3.44922C52.4258 3.42578 52.0625 3.41406 51.7109 3.41406C49.4922 3.41406 48.3828 4.78125 48.3828 7.51562V9.39062H53.4688V11.4297H48.3828V19H45.8984ZM60.6875 19.2344C59.3203 19.2344 58.2578 18.9258 57.5 18.3086C56.75 17.6836 56.375 16.7969 56.375 15.6484C56.375 14.3359 56.8516 13.3281 57.8047 12.625C58.7656 11.9219 60.125 11.5703 61.8828 11.5703C62.8203 11.5703 63.6406 11.668 64.3438 11.8633V11.1953C64.3438 10.3672 64.0508 9.76172 63.4648 9.37891C62.8867 8.98828 62.0234 8.77734 60.875 8.74609L57.8984 8.66406L58.1328 6.46094L60.6406 6.49609C62.6953 6.52734 64.2188 6.97266 65.2109 7.83203C66.2109 8.68359 66.7109 9.92969 66.7109 11.5703V16.75L68.8203 17.0078V19L64.8359 19.1172L64.7188 16.375H64.4727C64.3867 17.3281 64.0078 18.043 63.3359 18.5195C62.6641 18.9961 61.7812 19.2344 60.6875 19.2344ZM61.0859 17.2422C61.8125 17.2422 62.4141 17.1094 62.8906 16.8438C63.375 16.5781 63.7383 16.2383 63.9805 15.8242C64.2227 15.4102 64.3438 14.9844 64.3438 14.5469V13.7969C63.9062 13.6797 63.4688 13.6133 63.0312 13.5977C62.6016 13.5742 62.1641 13.5625 61.7188 13.5625C59.7188 13.5625 58.7188 14.1797 58.7188 15.4141C58.7188 16.6328 59.5078 17.2422 61.0859 17.2422ZM77.5391 19.2344C75.4219 19.2344 73.7852 18.6797 72.6289 17.5703C71.4805 16.4531 70.9062 14.8516 70.9062 12.7656C70.9062 10.7344 71.3945 9.15625 72.3711 8.03125C73.3477 6.90625 74.7266 6.34375 76.5078 6.34375C78.1875 6.34375 79.4844 6.85156 80.3984 7.86719C81.3203 8.88281 81.7812 10.3594 81.7812 12.2969C81.7812 12.8672 81.7578 13.3984 81.7109 13.8906H73.3203C73.5391 14.9297 74.0312 15.7188 74.7969 16.2578C75.5625 16.7891 76.5703 17.0547 77.8203 17.0547C78.3359 17.0547 78.8438 17.0273 79.3438 16.9727C79.8438 16.9102 80.3516 16.8281 80.8672 16.7266L81.1719 18.9062C80.4375 19.0469 79.7656 19.1367 79.1562 19.1758C78.5469 19.2148 78.0078 19.2344 77.5391 19.2344ZM76.5312 8.52344C75.5703 8.52344 74.8047 8.82422 74.2344 9.42578C73.6641 10.0273 73.3281 10.8828 73.2266 11.9922H79.5312C79.5312 10.875 79.2656 10.0195 78.7344 9.42578C78.2031 8.82422 77.4688 8.52344 76.5312 8.52344ZM92.1406 19.2344C90.7031 19.2344 89.6641 18.8438 89.0234 18.0625C88.3828 17.2812 88.0625 16.0312 88.0625 14.3125V3.46094H84.4062V1.42188H90.5469V14.1953C90.5469 14.8516 90.6094 15.3867 90.7344 15.8008C90.8594 16.2148 91.1016 16.5195 91.4609 16.7148C91.8281 16.9102 92.3672 17.0078 93.0781 17.0078C93.7266 17.0078 94.5547 16.8594 95.5625 16.5625L95.8438 18.7422C95.2109 18.9141 94.6016 19.0391 94.0156 19.1172C93.4375 19.1953 92.8125 19.2344 92.1406 19.2344ZM98.6094 11.7812V9.60156H110.328V11.7812H98.6094ZM113.469 24.3906V6.57812H115.719L115.918 8.82812H116.188C116.398 7.17188 117.492 6.34375 119.469 6.34375C121.055 6.34375 122.277 6.91797 123.137 8.06641C124.004 9.20703 124.438 10.8203 124.438 12.9062C124.438 14.9453 124.004 16.5117 123.137 17.6055C122.277 18.6914 121.062 19.2344 119.492 19.2344C118.555 19.2344 117.789 19.0547 117.195 18.6953C116.609 18.3281 116.273 17.7891 116.188 17.0781H115.953V24.3906H113.469ZM119.117 8.45312C117.008 8.45312 115.953 9.64062 115.953 12.0156V15.0156C115.953 16.4219 117 17.125 119.094 17.125C121.016 17.125 121.977 15.7188 121.977 12.9062C121.977 11.4844 121.727 10.3867 121.227 9.61328C120.734 8.83984 120.031 8.45312 119.117 8.45312ZM131 19.2344C129.633 19.2344 128.57 18.9258 127.812 18.3086C127.062 17.6836 126.688 16.7969 126.688 15.6484C126.688 14.3359 127.164 13.3281 128.117 12.625C129.078 11.9219 130.438 11.5703 132.195 11.5703C133.133 11.5703 133.953 11.668 134.656 11.8633V11.1953C134.656 10.3672 134.363 9.76172 133.777 9.37891C133.199 8.98828 132.336 8.77734 131.188 8.74609L128.211 8.66406L128.445 6.46094L130.953 6.49609C133.008 6.52734 134.531 6.97266 135.523 7.83203C136.523 8.68359 137.023 9.92969 137.023 11.5703V16.75L139.133 17.0078V19L135.148 19.1172L135.031 16.375H134.785C134.699 17.3281 134.32 18.043 133.648 18.5195C132.977 18.9961 132.094 19.2344 131 19.2344ZM131.398 17.2422C132.125 17.2422 132.727 17.1094 133.203 16.8438C133.688 16.5781 134.051 16.2383 134.293 15.8242C134.535 15.4102 134.656 14.9844 134.656 14.5469V13.7969C134.219 13.6797 133.781 13.6133 133.344 13.5977C132.914 13.5742 132.477 13.5625 132.031 13.5625C130.031 13.5625 129.031 14.1797 129.031 15.4141C129.031 16.6328 129.82 17.2422 131.398 17.2422ZM147.336 4.60938C146.859 4.60938 146.449 4.44141 146.105 4.10547C145.77 3.76172 145.602 3.35156 145.602 2.875C145.602 2.39063 145.77 1.98047 146.105 1.64453C146.449 1.30859 146.859 1.14062 147.336 1.14062C147.82 1.14062 148.23 1.30859 148.566 1.64453C148.902 1.98047 149.07 2.39063 149.07 2.875C149.07 3.35156 148.902 3.76172 148.566 4.10547C148.23 4.44141 147.82 4.60938 147.336 4.60938ZM141.5 19V16.9609H146.234V8.64062H142.203V6.57812H148.719V16.9609H152.539V19H141.5ZM154.93 19L159.371 12.8594L154.93 6.57812H157.742L160.719 10.9258L163.695 6.57812H166.508L162.008 12.7656L166.508 19H163.695L160.66 14.6875L157.742 19H154.93ZM173.188 19.2344C171.82 19.2344 170.758 18.9258 170 18.3086C169.25 17.6836 168.875 16.7969 168.875 15.6484C168.875 14.3359 169.352 13.3281 170.305 12.625C171.266 11.9219 172.625 11.5703 174.383 11.5703C175.32 11.5703 176.141 11.668 176.844 11.8633V11.1953C176.844 10.3672 176.551 9.76172 175.965 9.37891C175.387 8.98828 174.523 8.77734 173.375 8.74609L170.398 8.66406L170.633 6.46094L173.141 6.49609C175.195 6.52734 176.719 6.97266 177.711 7.83203C178.711 8.68359 179.211 9.92969 179.211 11.5703V16.75L181.32 17.0078V19L177.336 19.1172L177.219 16.375H176.973C176.887 17.3281 176.508 18.043 175.836 18.5195C175.164 18.9961 174.281 19.2344 173.188 19.2344ZM173.586 17.2422C174.312 17.2422 174.914 17.1094 175.391 16.8438C175.875 16.5781 176.238 16.2383 176.48 15.8242C176.723 15.4102 176.844 14.9844 176.844 14.5469V13.7969C176.406 13.6797 175.969 13.6133 175.531 13.5977C175.102 13.5742 174.664 13.5625 174.219 13.5625C172.219 13.5625 171.219 14.1797 171.219 15.4141C171.219 16.6328 172.008 17.2422 173.586 17.2422ZM188.844 19.2344C187.125 19.2344 185.789 18.6719 184.836 17.5469C183.883 16.4219 183.406 14.8359 183.406 12.7891C183.406 10.7344 183.883 9.14844 184.836 8.03125C185.789 6.90625 187.125 6.34375 188.844 6.34375C190.57 6.34375 191.906 6.90625 192.852 8.03125C193.805 9.14844 194.281 10.7344 194.281 12.7891C194.281 14.8359 193.805 16.4219 192.852 17.5469C191.906 18.6719 190.57 19.2344 188.844 19.2344ZM188.844 17.0078C189.758 17.0078 190.461 16.6406 190.953 15.9062C191.453 15.1719 191.703 14.1328 191.703 12.7891C191.703 11.4375 191.453 10.3984 190.953 9.67188C190.461 8.9375 189.758 8.57031 188.844 8.57031C187.93 8.57031 187.223 8.9375 186.723 9.67188C186.23 10.3984 185.984 11.4375 185.984 12.7891C185.984 14.1328 186.23 15.1719 186.723 15.9062C187.223 16.6406 187.93 17.0078 188.844 17.0078Z" fill="#CA0000"/>
</svg>
